<svg id="3f4a4af5-8580-48cc-b2d3-f542090b52d6" data-name="Layer 1" xmlns="http://www.w3.org/2000/svg" viewBox="0 0 1280 668"><defs><style>.a165e59f-d6e1-429a-966e-dae7ad883509{fill:#231f20;}</style></defs><title>ampla-logo</title><path class="a165e59f-d6e1-429a-966e-dae7ad883509" d="M582.22,336.24c.24,13,10.1,22.48,22.76,22.34,12.39-.11,22.14-9.18,22.16-21,.08-45.08.34-90.18-.17-135.26-.21-18.51-5-36.2-15.72-51.69-21-30.32-54.08-38.43-89.36-32.35a90.54,90.54,0,0,0-53.68,29.87c-1.93,2.16-2.84,2.23-4.51-.19a67.32,67.32,0,0,0-12.15-13c-29.74-25.35-83.5-25.74-115.57,4.75-1.9-11.06-7.62-18-16.22-20-16.58-3.83-29.08,6.14-29.08,23.34q-.06,69.73,0,139.49c0,17.63-.09,35.3,0,52.95.09,13.39,9.65,23,22.57,23.08,13.11.08,22.31-9.16,22.34-22.93.11-39.15.06-78.32.06-117.46a126.68,126.68,0,0,1,.73-14.1c3.38-29.52,25.27-48.25,55-46.87,26.32,1.24,44.48,19.11,44.82,45.51.53,42.81.28,85.62.41,128.45a66.54,66.54,0,0,0,.66,8.86c1.5,10.61,10.14,18,21.35,18.51,10.42.49,19.92-6.21,22.31-16.11a42.19,42.19,0,0,0,.69-9.88q.06-58.22,0-116.41c0-7.87.47-15.72,2.91-23.24,14-43.05,62.67-42.68,82.24-24.33,11.7,11,15.23,25,15.28,40.24.11,29.37,0,58.73,0,88.1,0,13.11-.17,26.23.08,39.32"/><path class="a165e59f-d6e1-429a-966e-dae7ad883509" d="M737.72,121.33c-51.71,14.27-86.54,61.47-86.63,116q-.11,97.81,0,195.61c0,1.75-.06,3.49,0,5.24.54,13.2,9.91,22.31,22.87,22.17,13.26-.11,22-8.86,22.06-22.53.11-36,.06-72,.08-108v-9.39c20.13,22.81,43.94,35.84,73.11,38.66,31.86,3.06,60.46-5.14,83.85-27,35.81-33.42,45.8-75.71,36-122.33C874.48,140,804.77,102.86,737.72,121.33m88,176.25c-21.22,21.39-47.37,27.38-76,19.15-28.35-8.13-45.14-28.13-52.63-56.25a86.43,86.43,0,0,1-2.48-22.34c.94-32.41,13.16-58.58,43.13-73.79,44.72-22.7,99.76,4.71,109.33,54,5.78,29.85.56,57.12-21.33,79.22"/><path class="a165e59f-d6e1-429a-966e-dae7ad883509" d="M1253.2,217.91c-4.77-30.57-19.13-55.75-43.17-75.09-25.8-20.75-55.54-28.56-88.42-25.31-33.4,3.3-61.14,17.52-81.85,43.84-27.64,35.17-32.56,75.25-20.28,117.09,19.49,66.37,84.1,95.16,142.75,75.18,18.55-6.33,34-17.35,47.86-33.44,0,7-.17,12.37,0,17.72a21.66,21.66,0,0,0,25.1,20.37c12.71-2.08,19.72-10.57,19.73-24.11q.06-44.84,0-89.66a173.12,173.12,0,0,0-1.8-26.61m-41.81,18.64c.06,36.69-17.93,65.55-47.26,77.68a77,77,0,0,1-105.07-56.1c-5.84-29.27-.58-56.1,20.3-78.09,21.2-22.34,47.86-28.6,77.11-20.24,28.58,8.15,45.19,28.56,52.59,56.84a69.81,69.81,0,0,1,2.33,19.92"/><path class="a165e59f-d6e1-429a-966e-dae7ad883509" d="M265.05,217.91c-4.77-30.57-19.13-55.75-43.17-75.09-25.8-20.75-55.54-28.56-88.42-25.31-33.4,3.3-61.14,17.52-81.85,43.84C24,196.52,19.06,236.61,31.34,278.44c19.49,66.37,84.1,95.16,142.75,75.18,18.55-6.33,34-17.35,47.86-33.44,0,7-.17,12.37,0,17.72a21.66,21.66,0,0,0,25.1,20.37c12.71-2.08,19.72-10.57,19.73-24.11q.06-44.84,0-89.66a173.12,173.12,0,0,0-1.8-26.61m-41.81,18.64c.06,36.69-17.93,65.55-47.26,77.68a77,77,0,0,1-105.07-56.1C65.07,228.85,70.32,202,91.2,180c21.2-22.34,47.86-28.6,77.11-20.24,28.58,8.15,45.19,28.56,52.59,56.84a69.81,69.81,0,0,1,2.33,19.92"/><path class="a165e59f-d6e1-429a-966e-dae7ad883509" d="M990.7,313.77a48.71,48.71,0,0,0-5.24,0c-9.74.94-15.75-4.06-19.83-12.26a52.61,52.61,0,0,1-5.13-23.75q0-119.05,0-238.08c0-5.76-1.05-11.08-4.73-15.6-5.88-7.21-15.83-9.8-25.16-6.65C922,20.4,916.48,28.23,916.46,37.9q-.06,61.62,0,123.23,0,56.64,0,113.28a115.63,115.63,0,0,0,2.18,25c4.09,19.11,12.09,36.07,28.61,47.56,15.87,11,33.4,14.7,52,7.83,11-4.07,15.77-13.78,13.41-24.24-2.53-11.15-9.76-16.71-21.86-16.73"/><path class="a165e59f-d6e1-429a-966e-dae7ad883509" d="M814.41,527Q811,524.3,811,517.61V489.89h-4.34a1.5,1.5,0,0,1-1.31-.61,3.52,3.52,0,0,1-.44-2v-1a3.51,3.51,0,0,1,.44-2,1.51,1.51,0,0,1,1.31-.61H811l1-9.12c.17-1.27,1.1-1.91,2.78-1.91h.87c1.73,0,2.61.64,2.61,1.91v9.12h7.3a1.46,1.46,0,0,1,1.35.61,3.77,3.77,0,0,1,.4,2v1a3.78,3.78,0,0,1-.4,2,1.46,1.46,0,0,1-1.35.61h-7.3v27c0,2.43.42,4.12,1.26,5a4.4,4.4,0,0,0,3.43,1.39,10.35,10.35,0,0,0,2.47-.22,5.44,5.44,0,0,1,1.26-.22c.52,0,1,.54,1.31,1.61a8.65,8.65,0,0,1,.52,2.48c0,1.74-2.12,2.61-6.34,2.61A12.43,12.43,0,0,1,814.41,527Z"/><path class="a165e59f-d6e1-429a-966e-dae7ad883509" d="M841.38,524q-5.2-5.65-5.21-17.29t5.13-17.55q5.13-6,15.12-6,8.87,0,13.38,5.78t4.52,16.9a4.21,4.21,0,0,1-1,2.17c-.69.93-1.31,1.39-1.83,1.39H844q.53,7.21,3.75,10.6c2.13,2.25,5.36,3.39,9.64,3.39a19.32,19.32,0,0,0,6.3-.92,31.39,31.39,0,0,0,4.39-1.82,9.13,9.13,0,0,1,2-.91c.57,0,1.22.58,2,1.73a5.79,5.79,0,0,1,1.09,2.61c0,.69-.73,1.49-2.18,2.39a20.58,20.58,0,0,1-5.77,2.25,31.15,31.15,0,0,1-7.7.92Q846.6,529.6,841.38,524Zm25.2-20.85q0-13.73-10.42-13.73-11.22,0-12.17,13.73Z"/><path class="a165e59f-d6e1-429a-966e-dae7ad883509" d="M888.78,527q-3.44-2.65-3.43-9.34v-52c0-1.27,1.15-1.92,3.47-1.92h.35c2.32,0,3.48.64,3.48,1.92v51.26c0,2.43.41,4.12,1.26,5a4.38,4.38,0,0,0,3.43,1.39,10.35,10.35,0,0,0,2.47-.22,5.44,5.44,0,0,1,1.26-.22c.52,0,1,.54,1.31,1.61a9.1,9.1,0,0,1,.52,2.48q0,2.61-6.35,2.61A12.39,12.39,0,0,1,888.78,527Z"/><path class="a165e59f-d6e1-429a-966e-dae7ad883509" d="M914,524q-5.2-5.65-5.21-17.29t5.13-17.55q5.13-6,15.12-6,8.87,0,13.38,5.78t4.52,16.9a4.21,4.21,0,0,1-1,2.17c-.69.93-1.31,1.39-1.83,1.39H916.62q.53,7.21,3.75,10.6c2.13,2.25,5.36,3.39,9.64,3.39a19.32,19.32,0,0,0,6.3-.92,31.39,31.39,0,0,0,4.39-1.82,9.13,9.13,0,0,1,2-.91c.57,0,1.22.58,2,1.73a5.79,5.79,0,0,1,1.09,2.61c0,.69-.73,1.49-2.18,2.39a20.58,20.58,0,0,1-5.77,2.25,31.15,31.15,0,0,1-7.7.92Q919.23,529.6,914,524Zm25.2-20.85q0-13.73-10.42-13.73-11.22,0-12.17,13.73Z"/><path class="a165e59f-d6e1-429a-966e-dae7ad883509" d="M960.67,524q-5.31-5.56-5.3-17.9t5.9-17.72a21.19,21.19,0,0,1,14.69-5.3,31,31,0,0,1,9,1.22q4,1.22,4,2.78a6.42,6.42,0,0,1-1,2.91q-1,1.78-1.78,1.78a.76.76,0,0,1-.39-.13,2,2,0,0,0-.56-.21,23.15,23.15,0,0,0-9.48-2.09q-12.6,0-12.59,16.6,0,9.21,3.08,13.29c2.06,2.72,5.52,4.08,10.39,4.08a21.64,21.64,0,0,0,9.82-2.26l1-.35c.57,0,1.21.56,1.9,1.69a5.64,5.64,0,0,1,1,2.74c0,.7-.62,1.38-1.87,2a19.7,19.7,0,0,1-5,1.69,31,31,0,0,1-6.78.7Q966,529.6,960.67,524Z"/><path class="a165e59f-d6e1-429a-966e-dae7ad883509" d="M1002.94,523.69q-5.18-5.91-5.18-17.12T1003,489.2q5.22-6.08,14.95-6.09,9.56,0,14.64,6t5.08,17.42q0,11.3-5,17.16t-14.73,5.87Q1008.1,529.6,1002.94,523.69Zm24.11-4.47q3-4.13,3-12.82t-3-12.85c-2-2.78-5.16-4.18-9.38-4.18s-7.33,1.38-9.3,4.13-3,7.05-3,12.9,1,10.07,3,12.82,5.07,4.13,9.3,4.13S1025,522,1027,519.22Z"/><path class="a165e59f-d6e1-429a-966e-dae7ad883509" d="M1105.5,486.2q4.09,3.09,4.08,11v30.15c0,1.28-1.16,1.92-3.48,1.92h-.35c-2.32,0-3.47-.64-3.47-1.92V497.88a8.62,8.62,0,0,0-2.13-6.16,8.11,8.11,0,0,0-6.21-2.26q-5.56,0-10.69,6.08a12.8,12.8,0,0,1,.08,1.74v30.06c0,1.28-1.16,1.92-3.48,1.92h-.34c-2.32,0-3.48-.64-3.48-1.92V497.88a8.62,8.62,0,0,0-2.13-6.16,8.11,8.11,0,0,0-6.21-2.26,10.4,10.4,0,0,0-5.18,1.35,17,17,0,0,0-3.9,2.91,9.4,9.4,0,0,0-1.53,1.74v31.89c0,1.28-1.15,1.92-3.47,1.92h-.35c-2.32,0-3.48-.64-3.48-1.92v-30.5a44.49,44.49,0,0,0-.52-8.21c-.34-1.65-.52-2.56-.52-2.74,0-.7.56-1.2,1.65-1.52a11.19,11.19,0,0,1,3-.48,1.87,1.87,0,0,1,1.78,1.26,14,14,0,0,1,.87,2.65c.21.93.33,1.54.39,1.82a21.28,21.28,0,0,1,5.87-4.65,15.18,15.18,0,0,1,7.35-1.87,17.1,17.1,0,0,1,7.33,1.61,10.17,10.17,0,0,1,5.09,5.61,23.64,23.64,0,0,1,6.29-5.17,15.11,15.11,0,0,1,7.52-2A15.43,15.43,0,0,1,1105.5,486.2Z"/><path class="a165e59f-d6e1-429a-966e-dae7ad883509" d="M809.25,577.73v-4.87c0-1.39,1.38-2.08,4.17-2.08q3.82,0,3.82,2.08v4.87c0,1.39-1.39,2.08-4.17,2.08Q809.25,579.82,809.25,577.73Zm.34,53.87v-42c0-1.27,1.16-1.91,3.48-1.91h.35c2.32,0,3.47.64,3.47,1.91v42c0,1.28-1.15,1.92-3.47,1.92h-.35C810.75,633.52,809.59,632.88,809.59,631.6Z"/><path class="a165e59f-d6e1-429a-966e-dae7ad883509" d="M832.18,631.6v-30.5a44.49,44.49,0,0,0-.52-8.21c-.34-1.65-.52-2.56-.52-2.74,0-.7.56-1.2,1.66-1.52a11.05,11.05,0,0,1,3-.48,1.87,1.87,0,0,1,1.77,1.26,14,14,0,0,1,.87,2.65c.21.93.34,1.54.39,1.82a21.11,21.11,0,0,1,6.35-4.78,16.31,16.31,0,0,1,7.21-1.74q6.6,0,10.38,3.74t3.78,10.34V631.6c0,1.28-1.16,1.92-3.48,1.92h-.34c-2.33,0-3.48-.64-3.48-1.92V602.15a8.25,8.25,0,0,0-2.3-6.21,9.1,9.1,0,0,0-6.56-2.21,11.8,11.8,0,0,0-5.87,1.65,17.21,17.21,0,0,0-5.08,4.43v31.8c0,1.28-1.16,1.92-3.48,1.92h-.35C833.35,633.52,832.18,632.88,832.18,631.6Z"/><path class="a165e59f-d6e1-429a-966e-dae7ad883509" d="M885.85,631.22q-3.44-2.65-3.43-9.34V594.15h-4.34a1.5,1.5,0,0,1-1.31-.61,3.52,3.52,0,0,1-.44-2v-1a3.51,3.51,0,0,1,.44-2,1.51,1.51,0,0,1,1.31-.61h4.34l1-9.12c.17-1.27,1.1-1.91,2.78-1.91h.87c1.73,0,2.61.64,2.61,1.91v9.12H897a1.46,1.46,0,0,1,1.35.61,3.77,3.77,0,0,1,.4,2v1a3.78,3.78,0,0,1-.4,2,1.46,1.46,0,0,1-1.35.61h-7.3v27c0,2.43.42,4.12,1.26,5a4.4,4.4,0,0,0,3.43,1.39,10.35,10.35,0,0,0,2.47-.22,5.44,5.44,0,0,1,1.26-.22c.52,0,1,.54,1.31,1.61a8.65,8.65,0,0,1,.52,2.48c0,1.74-2.12,2.61-6.34,2.61A12.43,12.43,0,0,1,885.85,631.22Z"/><path class="a165e59f-d6e1-429a-966e-dae7ad883509" d="M912.82,628.21q-5.2-5.65-5.21-17.29t5.13-17.55q5.13-6,15.12-6,8.87,0,13.38,5.78t4.52,16.9a4.21,4.21,0,0,1-1,2.17c-.69.93-1.31,1.39-1.83,1.39H915.42q.53,7.21,3.75,10.6c2.13,2.25,5.36,3.39,9.64,3.39a19.32,19.32,0,0,0,6.3-.92,31.39,31.39,0,0,0,4.39-1.82,9.13,9.13,0,0,1,2-.91c.57,0,1.22.58,2,1.73a5.79,5.79,0,0,1,1.09,2.61c0,.69-.73,1.49-2.18,2.39a20.58,20.58,0,0,1-5.77,2.25,31.15,31.15,0,0,1-7.7.92Q918,633.86,912.82,628.21ZM938,607.37q0-13.73-10.42-13.73-11.22,0-12.17,13.73Z"/><path class="a165e59f-d6e1-429a-966e-dae7ad883509" d="M960.21,631.22q-3.44-2.65-3.43-9.34v-52c0-1.27,1.15-1.92,3.47-1.92h.35c2.32,0,3.48.64,3.48,1.92v51.26c0,2.43.41,4.12,1.26,5a4.38,4.38,0,0,0,3.43,1.39,10.35,10.35,0,0,0,2.47-.22,5.44,5.44,0,0,1,1.26-.22c.52,0,1,.54,1.31,1.61a9.1,9.1,0,0,1,.52,2.48q0,2.61-6.35,2.61A12.39,12.39,0,0,1,960.21,631.22Z"/><path class="a165e59f-d6e1-429a-966e-dae7ad883509" d="M986,631.22q-3.44-2.65-3.43-9.34v-52c0-1.27,1.15-1.92,3.47-1.92h.35c2.32,0,3.48.64,3.48,1.92v51.26c0,2.43.41,4.12,1.26,5a4.38,4.38,0,0,0,3.43,1.39,10.35,10.35,0,0,0,2.47-.22,5.44,5.44,0,0,1,1.26-.22c.52,0,1,.54,1.31,1.61a9.1,9.1,0,0,1,.52,2.48q0,2.61-6.35,2.61A12.39,12.39,0,0,1,986,631.22Z"/><path class="a165e59f-d6e1-429a-966e-dae7ad883509" d="M1008.83,577.73v-4.87c0-1.39,1.38-2.08,4.17-2.08q3.82,0,3.82,2.08v4.87c0,1.39-1.39,2.08-4.17,2.08Q1008.83,579.82,1008.83,577.73Zm.34,53.87v-42c0-1.27,1.16-1.91,3.48-1.91h.35c2.32,0,3.47.64,3.47,1.91v42c0,1.28-1.15,1.92-3.47,1.92h-.35C1010.33,633.52,1009.17,632.88,1009.17,631.6Z"/><path class="a165e59f-d6e1-429a-966e-dae7ad883509" d="M1033.12,649.15a8.65,8.65,0,0,1-4.82-8.16,10.37,10.37,0,0,1,2.17-6.61,13.75,13.75,0,0,1,5.73-4.25l.08-.18a8.74,8.74,0,0,1-3.48-7.13,10.5,10.5,0,0,1,4.87-9,13,13,0,0,1-5.56-5,13.86,13.86,0,0,1-1.92-7.21,13,13,0,0,1,4.52-10.16q4.53-4,12.61-4a23.73,23.73,0,0,1,5.12.52h15.82a1.46,1.46,0,0,1,1.35.61,3.78,3.78,0,0,1,.39,2v1a3.79,3.79,0,0,1-.39,2,1.46,1.46,0,0,1-1.35.61,59.88,59.88,0,0,1-6.09-.26l-.08.18a12.7,12.7,0,0,1,2.25,7.47,13.14,13.14,0,0,1-4.47,10.25q-4.47,4-12.64,4a10.92,10.92,0,0,0-6.17,1.44,5.15,5.15,0,0,0-2.08,4.56,4.18,4.18,0,0,0,1.44,3.44,8.87,8.87,0,0,0,3.6,1.69,53.33,53.33,0,0,0,6.09,1c1.27.12,2.23.23,2.86.35a24.31,24.31,0,0,1,9.7,2.91c2.28,1.42,3.43,3.93,3.43,7.52a11,11,0,0,1-5,9.73q-5,3.39-14.76,3.39Q1037.94,651.76,1033.12,649.15Zm23.1-4.87a5.16,5.16,0,0,0,2.91-4.86,4,4,0,0,0-2.86-4.08,38.72,38.72,0,0,0-8.61-1.65,40.81,40.81,0,0,1-7.13-1.13q-5.73,2.43-5.73,7,0,6.25,12.42,6.25Q1053.32,645.85,1056.23,644.29ZM1054.84,608q2.82-2,2.82-6.39,0-8.43-10.44-8.42t-10.34,8.42q0,8.35,10.34,8.35A13.19,13.19,0,0,0,1054.84,608Z"/><path class="a165e59f-d6e1-429a-966e-dae7ad883509" d="M1081.73,628.21q-5.2-5.65-5.21-17.29t5.13-17.55q5.13-6,15.12-6,8.87,0,13.38,5.78t4.52,16.9a4.21,4.21,0,0,1-1,2.17c-.69.93-1.31,1.39-1.83,1.39h-27.46q.53,7.21,3.75,10.6c2.13,2.25,5.36,3.39,9.64,3.39a19.32,19.32,0,0,0,6.3-.92,31.39,31.39,0,0,0,4.39-1.82,9.13,9.13,0,0,1,2-.91c.57,0,1.22.58,2,1.73a5.79,5.79,0,0,1,1.09,2.61c0,.69-.73,1.49-2.18,2.39a20.58,20.58,0,0,1-5.77,2.25,31.15,31.15,0,0,1-7.7.92Q1086.95,633.86,1081.73,628.21Zm25.2-20.85q0-13.73-10.42-13.73-11.22,0-12.17,13.73Z"/><path class="a165e59f-d6e1-429a-966e-dae7ad883509" d="M1126,631.6v-30.5a44.49,44.49,0,0,0-.52-8.21c-.34-1.65-.52-2.56-.52-2.74,0-.7.56-1.2,1.66-1.52a11.05,11.05,0,0,1,3-.48,1.87,1.87,0,0,1,1.77,1.26,14,14,0,0,1,.87,2.65c.21.93.34,1.54.39,1.82a21.11,21.11,0,0,1,6.35-4.78,16.31,16.31,0,0,1,7.21-1.74q6.6,0,10.38,3.74t3.78,10.34V631.6c0,1.28-1.16,1.92-3.48,1.92h-.34c-2.33,0-3.48-.64-3.48-1.92V602.15a8.25,8.25,0,0,0-2.3-6.21,9.1,9.1,0,0,0-6.56-2.21,11.8,11.8,0,0,0-5.87,1.65,17.21,17.21,0,0,0-5.08,4.43v31.8c0,1.28-1.16,1.92-3.48,1.92h-.35C1127.2,633.52,1126,632.88,1126,631.6Z"/><path class="a165e59f-d6e1-429a-966e-dae7ad883509" d="M1176.79,628.31q-5.31-5.56-5.3-17.9t5.9-17.72a21.19,21.19,0,0,1,14.69-5.3,31,31,0,0,1,9,1.22q4,1.22,4,2.78a6.42,6.42,0,0,1-1,2.91q-1,1.78-1.78,1.78a.76.76,0,0,1-.39-.13,2,2,0,0,0-.56-.21,23.15,23.15,0,0,0-9.48-2.09q-12.6,0-12.59,16.6,0,9.21,3.08,13.29c2.06,2.72,5.52,4.08,10.39,4.08a21.64,21.64,0,0,0,9.82-2.26l1-.35c.57,0,1.21.56,1.9,1.69a5.64,5.64,0,0,1,1,2.74c0,.7-.62,1.38-1.87,2a19.7,19.7,0,0,1-5,1.69,31,31,0,0,1-6.78.7Q1182.08,633.86,1176.79,628.31Z"/><path class="a165e59f-d6e1-429a-966e-dae7ad883509" d="M1219.09,628.21q-5.2-5.65-5.21-17.29t5.13-17.55q5.13-6,15.12-6,8.87,0,13.38,5.78t4.52,16.9a4.21,4.21,0,0,1-1,2.17c-.69.93-1.31,1.39-1.83,1.39H1221.7q.53,7.21,3.75,10.6c2.13,2.25,5.36,3.39,9.64,3.39a19.32,19.32,0,0,0,6.3-.92,31.39,31.39,0,0,0,4.39-1.82,9.13,9.13,0,0,1,2-.91c.57,0,1.22.58,2,1.73a5.79,5.79,0,0,1,1.09,2.61c0,.69-.73,1.49-2.18,2.39a20.58,20.58,0,0,1-5.77,2.25,31.15,31.15,0,0,1-7.7.92Q1224.31,633.86,1219.09,628.21Zm25.2-20.85q0-13.73-10.42-13.73-11.22,0-12.17,13.73Z"/></svg>